<?xml version="1.0" encoding="utf-8"?>
<!-- Generator: Adobe Illustrator 25.4.1, SVG Export Plug-In . SVG Version: 6.00 Build 0)  -->
<svg version="1.1" id="Layer_1" xmlns="http://www.w3.org/2000/svg" xmlns:xlink="http://www.w3.org/1999/xlink" x="0px" y="0px"
	 viewBox="0 0 1320 583.5" style="enable-background:new 0 0 1320 583.5;" xml:space="preserve">
<style type="text/css">
	.st0{fill:#F6F6F6;}
	.st1{fill:url(#SVGID_1_);}
	.st2{fill:#F2884B;}
	.st3{fill:#FFFFFF;}
	.st4{opacity:0.5;}
	.st5{fill:#449DA6;}
	.st6{fill:none;stroke:#FFFFFF;stroke-width:3;stroke-linecap:round;}
	.st7{opacity:0.1;enable-background:new    ;}
</style>
<path class="st0" d="M1316.98,485.63c0-2.09,1.06-3.5,2.48-4.23c-1.72-5.01-3.22-10.13-4.4-15.41c-0.82-3.64,2.08-6.06,4.94-6.23
	V21.61C1320,9.68,1310.69,0,1299.21,0H20.79C9.31,0,0,9.68,0,21.61v540.28c0,11.94,9.31,21.61,20.79,21.61h1133.43v-1.4h152.32
	c4.38-1.71,8.05-4.92,10.45-9.01V485.63z"/>
<linearGradient id="SVGID_1_" gradientUnits="userSpaceOnUse" x1="660" y1="583.5" x2="660" y2="-207.7285">
	<stop  offset="0" style="stop-color:#D8E6E6"/>
	<stop  offset="0.1545" style="stop-color:#E1EBEB"/>
	<stop  offset="0.4045" style="stop-color:#FAFCFB"/>
	<stop  offset="0.4323" style="stop-color:#FFFFFF"/>
	<stop  offset="0.5245" style="stop-color:#FAFCFC"/>
	<stop  offset="0.5915" style="stop-color:#EFF4F4"/>
	<stop  offset="0.6505" style="stop-color:#DFE9EB"/>
	<stop  offset="0.7049" style="stop-color:#CADCDF"/>
	<stop  offset="0.7562" style="stop-color:#AECCD1"/>
	<stop  offset="0.8051" style="stop-color:#8DBAC2"/>
	<stop  offset="0.8513" style="stop-color:#65A8B1"/>
	<stop  offset="0.8784" style="stop-color:#449DA6"/>
</linearGradient>
<path class="st1" d="M1316.98,485.63c0-2.09,1.06-3.5,2.48-4.23c-1.72-5.01-3.22-10.13-4.4-15.41c-0.82-3.64,2.08-6.06,4.94-6.23
	V21.61C1320,9.68,1310.69,0,1299.21,0H20.79C9.31,0,0,9.68,0,21.61v540.28c0,11.94,9.31,21.61,20.79,21.61h1133.43v-1.4h152.32
	c4.38-1.71,8.05-4.92,10.45-9.01V485.63z"/>
<path id="Rectangle_5146" class="st2" d="M902.43,565h395l0,0l0,0c0,10.49-8.51,19-19,19h-395l0,0l0,0
	C883.43,573.51,891.94,565,902.43,565z"/>
<g id="Group_53760_00000171720195012935359180000016440382205919162805_" transform="translate(-140 81.913)">
	<g id="Group_53756_00000182529619550700842930000000004865752396461236_" transform="translate(1415 312.911)">
		<circle id="Ellipse_4054_00000087374594316188587060000013460370873084166018_" class="st3" cx="3.22" cy="3.31" r="3.22"/>
		
			<ellipse id="Ellipse_4055_00000084509100464673417600000016214046676618839180_" class="st3" cx="3.22" cy="17.92" rx="3.22" ry="3.47"/>
		
			<ellipse id="Ellipse_4056_00000122710624294768175650000002475183942292580998_" class="st3" cx="3.22" cy="32.29" rx="3.22" ry="3.47"/>
	</g>
	<g id="Group_53758_00000175313135660160230780000017132133214225769643_" transform="translate(1415 354.911)">
		<circle id="Ellipse_4054-2_00000139992899042027984190000000425196684405452468_" class="st3" cx="3.22" cy="3.31" r="3.22"/>
		
			<ellipse id="Ellipse_4055-2_00000132076649637864956790000003165771165200977813_" class="st3" cx="3.22" cy="17.92" rx="3.22" ry="3.47"/>
		
			<ellipse id="Ellipse_4056-2_00000059308243161142583480000002852592404878170509_" class="st3" cx="3.22" cy="32.29" rx="3.22" ry="3.47"/>
	</g>
	<g id="Group_53759_00000097483397565871632730000001079896383585503921_" transform="translate(1415 396.911)">
		<circle id="Ellipse_4054-3_00000016797470784364123260000009426122165758475173_" class="st3" cx="3.22" cy="3.31" r="3.22"/>
		
			<ellipse id="Ellipse_4055-3_00000173870528653695317250000010115631783938134452_" class="st3" cx="3.22" cy="17.92" rx="3.22" ry="3.47"/>
		
			<ellipse id="Ellipse_4056-3_00000103961198602579284780000002944246403190020276_" class="st3" cx="3.22" cy="32.29" rx="3.22" ry="3.47"/>
	</g>
</g>
<g id="Group_74272_00000008862401299775878020000013534226902345140648_" transform="translate(0 291.201)" class="st4">
	<g id="Group_53320_00000101819562292786765330000000592707143954277041_" transform="translate(1.634)">
		<path id="Path_99297_00000132810673735271823490000013044223908744035249_" class="st5" d="M29.56-79.12
			c-0.06,1.13,0.81,2.1,1.94,2.16c1.13,0.06,2.1-0.81,2.17-1.94c0.06-1.13-0.81-2.1-1.94-2.16c-0.03,0-0.06,0-0.09,0
			c-1.11-0.04-2.04,0.82-2.08,1.93C29.56-79.14,29.56-79.13,29.56-79.12z"/>
		<path id="Path_99298_00000043424096297447792030000001866115540759105726_" class="st5" d="M11.08-79.34
			c-0.06,1.13,0.8,2.11,1.94,2.17c1.13,0.06,2.11-0.8,2.17-1.94c0.06-1.13-0.8-2.11-1.94-2.17c-0.03,0-0.06,0-0.09,0
			c-1.11-0.04-2.04,0.82-2.08,1.93C11.08-79.35,11.08-79.34,11.08-79.34z"/>
		<path id="Path_99299_00000005962405330824219420000014631409694983168393_" class="st5" d="M-7.41-79.55
			c-0.06,1.13,0.8,2.1,1.94,2.17c1.13,0.06,2.1-0.8,2.17-1.94c0.06-1.13-0.8-2.1-1.94-2.17c-0.03,0-0.06,0-0.09,0
			c-1.11-0.04-2.04,0.82-2.08,1.93C-7.41-79.56-7.41-79.56-7.41-79.55z"/>
		<path id="Path_99300_00000152956382555633105150000002815152444684238481_" class="st5" d="M-25.9-79.76
			c-0.06,1.13,0.81,2.1,1.94,2.16c1.13,0.06,2.1-0.81,2.17-1.94c0.06-1.13-0.81-2.1-1.94-2.16c-0.03,0-0.06,0-0.09,0
			c-1.11-0.04-2.04,0.82-2.08,1.93C-25.9-79.78-25.9-79.77-25.9-79.76z"/>
		<path id="Path_99301_00000178895825412763884740000002778280642135952287_" class="st5" d="M-44.39-79.98
			c-0.06,1.13,0.8,2.11,1.94,2.17c1.13,0.06,2.11-0.8,2.17-1.94c0.06-1.13-0.8-2.11-1.94-2.17c-0.03,0-0.06,0-0.09,0
			c-1.11-0.04-2.04,0.82-2.08,1.93C-44.39-79.99-44.39-79.98-44.39-79.98z"/>
		<path id="Path_99302_00000103227612861983224750000007500070598628199336_" class="st5" d="M-62.88-80.19
			c-0.06,1.13,0.8,2.1,1.94,2.17c1.13,0.06,2.1-0.8,2.17-1.94c0.06-1.13-0.8-2.1-1.94-2.17c-0.03,0-0.06,0-0.09,0
			c-1.11-0.04-2.04,0.82-2.08,1.93C-62.88-80.2-62.88-80.2-62.88-80.19z"/>
		<path id="Path_99303_00000091013223079148423910000014168655496976941960_" class="st5" d="M-81.37-80.4
			c-0.06,1.13,0.8,2.11,1.94,2.17c1.13,0.06,2.11-0.8,2.17-1.94c0.06-1.13-0.8-2.11-1.94-2.17c-0.03,0-0.06,0-0.09,0
			c-1.11-0.04-2.04,0.82-2.08,1.93C-81.37-80.41-81.37-80.41-81.37-80.4z"/>
		<path id="Path_99304_00000109712146872212498230000018359728716415004288_" class="st5" d="M-99.86-80.62
			c-0.06,1.13,0.8,2.11,1.94,2.17c1.13,0.06,2.11-0.8,2.17-1.94c0.06-1.13-0.8-2.11-1.94-2.17c-0.03,0-0.06,0-0.09,0
			c-1.11-0.04-2.04,0.82-2.08,1.93C-99.86-80.63-99.86-80.63-99.86-80.62z"/>
		<path id="Path_99305_00000024689762715199575820000016153804711753442190_" class="st5" d="M-118.35-80.83
			c-0.06,1.13,0.81,2.1,1.94,2.16c1.13,0.06,2.1-0.81,2.17-1.94c0.06-1.13-0.81-2.1-1.94-2.16c-0.03,0-0.06,0-0.09,0
			c-1.11-0.04-2.04,0.82-2.08,1.93C-118.35-80.84-118.35-80.84-118.35-80.83z"/>
		<path id="Path_99306_00000021103679464566393040000008521195630039126915_" class="st5" d="M-136.84-81.05
			c-0.06,1.13,0.8,2.11,1.94,2.17c1.13,0.06,2.11-0.8,2.17-1.94c0.06-1.13-0.8-2.11-1.94-2.17c-0.03,0-0.06,0-0.09,0
			c-1.11-0.04-2.04,0.82-2.08,1.93C-136.84-81.06-136.84-81.05-136.84-81.05z"/>
		<path id="Path_99307_00000090260867354184267050000017528449085842477979_" class="st5" d="M-155.32-81.26
			c-0.06,1.13,0.8,2.1,1.94,2.17c1.13,0.06,2.1-0.8,2.17-1.94c0.06-1.13-0.8-2.1-1.94-2.17c-0.03,0-0.06,0-0.09,0
			c-1.11-0.04-2.04,0.82-2.08,1.93C-155.32-81.27-155.32-81.27-155.32-81.26z"/>
	</g>
	<g id="Group_53321_00000147191947394516034140000009880009166549385402_" transform="translate(1.485 11.771)">
		<path id="Path_99308_00000082333610342529903090000012464172317487601312_" class="st5" d="M29.51-75.17
			c-0.06,1.13,0.8,2.11,1.94,2.17c1.13,0.06,2.11-0.8,2.17-1.94c0.06-1.13-0.8-2.11-1.94-2.17c-0.03,0-0.06,0-0.09,0
			c-1.11-0.04-2.04,0.82-2.08,1.93C29.51-75.18,29.51-75.18,29.51-75.17z"/>
		<path id="Path_99309_00000098204053784430737720000000170984463657151635_" class="st5" d="M11.03-75.38
			c-0.06,1.13,0.8,2.11,1.94,2.17s2.11-0.8,2.17-1.94c0.06-1.13-0.8-2.11-1.94-2.17c-0.03,0-0.06,0-0.09,0
			C12-77.36,11.06-76.5,11.03-75.38C11.03-75.39,11.03-75.38,11.03-75.38z"/>
		<path id="Path_99310_00000181807822894651174500000010919838874524123326_" class="st5" d="M-7.46-75.6
			c-0.06,1.13,0.8,2.11,1.94,2.17c1.13,0.06,2.11-0.8,2.17-1.94c0.06-1.13-0.8-2.11-1.94-2.17c-0.03,0-0.06,0-0.09,0
			c-1.11-0.04-2.04,0.82-2.08,1.93C-7.46-75.61-7.46-75.6-7.46-75.6z"/>
		<path id="Path_99311_00000077313887940691941260000016644401285748111273_" class="st5" d="M-25.95-75.81
			c-0.06,1.13,0.8,2.1,1.94,2.17c1.13,0.06,2.1-0.8,2.17-1.94c0.06-1.13-0.8-2.1-1.94-2.17c-0.03,0-0.06,0-0.09,0
			c-1.11-0.04-2.04,0.82-2.08,1.93C-25.95-75.82-25.95-75.82-25.95-75.81z"/>
		<path id="Path_99312_00000167383016330484213470000005682576682556820626_" class="st5" d="M-44.44-76.02
			c-0.06,1.13,0.81,2.1,1.94,2.17c1.13,0.06,2.1-0.81,2.17-1.94s-0.81-2.1-1.94-2.17c-0.03,0-0.06,0-0.09,0
			c-1.11-0.04-2.04,0.82-2.08,1.93C-44.44-76.03-44.44-76.03-44.44-76.02z"/>
		<path id="Path_99313_00000083776317408777772040000005418543361521718196_" class="st5" d="M-62.93-76.24
			c-0.06,1.13,0.8,2.11,1.94,2.17c1.13,0.06,2.11-0.8,2.17-1.94c0.06-1.13-0.8-2.11-1.94-2.17c-0.03,0-0.06,0-0.09,0
			c-1.11-0.04-2.04,0.82-2.08,1.93C-62.93-76.25-62.93-76.24-62.93-76.24z"/>
		<path id="Path_99314_00000153665106952084558370000017096643932953282996_" class="st5" d="M-81.42-76.45
			c-0.06,1.13,0.8,2.1,1.94,2.17c1.13,0.06,2.1-0.8,2.17-1.94c0.06-1.13-0.8-2.1-1.94-2.17c-0.03,0-0.06,0-0.09,0
			c-1.11-0.04-2.04,0.82-2.08,1.93C-81.42-76.46-81.42-76.46-81.42-76.45z"/>
		<path id="Path_99315_00000106105931273135514750000011487860811240796827_" class="st5" d="M-99.91-76.67
			c-0.06,1.13,0.8,2.11,1.94,2.17c1.13,0.06,2.11-0.8,2.17-1.94c0.06-1.13-0.8-2.11-1.94-2.17c-0.03,0-0.06,0-0.09,0
			c-1.11-0.04-2.04,0.82-2.08,1.93C-99.91-76.68-99.91-76.67-99.91-76.67z"/>
		<path id="Path_99316_00000025440103837334520610000017602255222773843898_" class="st5" d="M-118.4-76.88
			c-0.06,1.13,0.8,2.1,1.94,2.17c1.13,0.06,2.1-0.8,2.17-1.94c0.06-1.13-0.8-2.1-1.94-2.17c-0.03,0-0.06,0-0.09,0
			c-1.11-0.04-2.04,0.82-2.08,1.93C-118.4-76.89-118.4-76.88-118.4-76.88z"/>
		<path id="Path_99317_00000079468323534312351540000008369088309758575534_" class="st5" d="M-136.89-77.09
			c-0.06,1.13,0.81,2.1,1.94,2.17c1.13,0.06,2.1-0.81,2.17-1.94c0.06-1.13-0.81-2.1-1.94-2.17c-0.03,0-0.06,0-0.09,0
			c-1.11-0.04-2.04,0.82-2.08,1.93C-136.89-77.1-136.89-77.1-136.89-77.09z"/>
		<path id="Path_99318_00000175296204063905753880000002458129988377434538_" class="st5" d="M-155.37-77.31
			c-0.06,1.13,0.8,2.11,1.94,2.17c1.13,0.06,2.11-0.8,2.17-1.94c0.06-1.13-0.8-2.11-1.94-2.17c-0.03,0-0.06,0-0.09,0
			c-1.11-0.04-2.04,0.82-2.08,1.93C-155.37-77.32-155.37-77.31-155.37-77.31z"/>
	</g>
	<g id="Group_53322_00000161602631772195537090000010406588927379829164_" transform="translate(1.336 23.544)">
		<path id="Path_99319_00000010268804170706579280000015811195296916513175_" class="st5" d="M29.47-71.22
			c-0.06,1.13,0.8,2.11,1.94,2.17c1.13,0.06,2.11-0.8,2.17-1.94c0.06-1.13-0.8-2.11-1.94-2.17c-0.03,0-0.06,0-0.09,0
			c-1.11-0.04-2.04,0.82-2.08,1.93C29.47-71.23,29.47-71.22,29.47-71.22z"/>
		<path id="Path_99320_00000178173872689480086700000003101005885896692112_" class="st5" d="M10.98-71.43
			c-0.06,1.13,0.8,2.1,1.94,2.17c1.13,0.06,2.1-0.8,2.17-1.94c0.06-1.13-0.8-2.1-1.94-2.17c-0.03,0-0.06,0-0.09,0
			c-1.11-0.04-2.04,0.82-2.08,1.93C10.98-71.44,10.98-71.44,10.98-71.43z"/>
		<path id="Path_99321_00000066498330066904489020000003216590288061417618_" class="st5" d="M-7.51-71.64
			c-0.06,1.13,0.8,2.11,1.94,2.17c1.13,0.06,2.11-0.8,2.17-1.94c0.06-1.13-0.8-2.11-1.94-2.17c-0.03,0-0.06,0-0.09,0
			c-1.11-0.04-2.04,0.82-2.08,1.93C-7.51-71.65-7.51-71.65-7.51-71.64z"/>
		<path id="Path_99322_00000082341043217591880360000000047364389581433778_" class="st5" d="M-26-71.86
			c-0.06,1.13,0.81,2.1,1.94,2.17c1.13,0.06,2.1-0.81,2.17-1.94c0.06-1.13-0.81-2.1-1.94-2.17c-0.03,0-0.06,0-0.09,0
			c-1.11-0.04-2.04,0.82-2.08,1.93C-26-71.87-26-71.86-26-71.86z"/>
		<path id="Path_99323_00000073715339665986282270000006642249270850025345_" class="st5" d="M-44.49-72.07
			c-0.06,1.13,0.8,2.1,1.94,2.17c1.13,0.06,2.1-0.8,2.17-1.94c0.06-1.13-0.8-2.1-1.94-2.17c-0.03,0-0.06,0-0.09,0
			c-1.11-0.04-2.04,0.82-2.08,1.93C-44.49-72.08-44.49-72.08-44.49-72.07z"/>
		<path id="Path_99324_00000156571592879192383260000001788876171729268147_" class="st5" d="M-62.98-72.28
			c-0.06,1.13,0.8,2.11,1.94,2.17c1.13,0.06,2.11-0.8,2.17-1.94c0.06-1.13-0.8-2.11-1.94-2.17c-0.03,0-0.06,0-0.09,0
			c-1.11-0.04-2.04,0.82-2.08,1.93C-62.98-72.29-62.98-72.29-62.98-72.28z"/>
		<path id="Path_99325_00000169560030914386243140000017432111393255141782_" class="st5" d="M-81.47-72.5
			c-0.06,1.13,0.8,2.1,1.94,2.17c1.13,0.06,2.1-0.8,2.17-1.94c0.06-1.13-0.8-2.1-1.94-2.17c-0.03,0-0.06,0-0.09,0
			c-1.11-0.04-2.04,0.82-2.08,1.93C-81.47-72.5-81.47-72.5-81.47-72.5z"/>
		<path id="Path_99326_00000125567789288557203760000000532883862572540800_" class="st5" d="M-99.96-72.71
			c-0.06,1.13,0.8,2.11,1.94,2.17c1.13,0.06,2.11-0.8,2.17-1.94c0.06-1.13-0.8-2.11-1.94-2.17c-0.03,0-0.06,0-0.09,0
			c-1.11-0.04-2.04,0.82-2.08,1.93C-99.96-72.72-99.96-72.72-99.96-72.71z"/>
		<path id="Path_99327_00000156582739401159516120000005748764687250135696_" class="st5" d="M-118.45-72.92
			c-0.06,1.13,0.81,2.1,1.94,2.17c1.13,0.06,2.1-0.81,2.17-1.94c0.06-1.13-0.81-2.1-1.94-2.17c-0.03,0-0.06,0-0.09,0
			c-1.11-0.04-2.04,0.82-2.08,1.93C-118.45-72.93-118.45-72.93-118.45-72.92z"/>
		<path id="Path_99328_00000057125017193753483750000016242741096598434196_" class="st5" d="M-136.93-73.14
			c-0.06,1.13,0.8,2.1,1.94,2.17c1.13,0.06,2.1-0.8,2.17-1.94s-0.8-2.1-1.94-2.17c-0.03,0-0.06,0-0.09,0
			c-1.11-0.04-2.04,0.82-2.08,1.93C-136.93-73.15-136.93-73.14-136.93-73.14z"/>
		<path id="Path_99329_00000003078621431855648830000012279632296848183973_" class="st5" d="M-155.42-73.35
			c-0.06,1.13,0.8,2.11,1.94,2.17c1.13,0.06,2.11-0.8,2.17-1.94c0.06-1.13-0.8-2.11-1.94-2.17c-0.03,0-0.06,0-0.09,0
			c-1.11-0.04-2.04,0.82-2.08,1.93C-155.42-73.36-155.42-73.36-155.42-73.35z"/>
	</g>
	<g id="Group_53323_00000070085327959222048110000017890843967689173414_" transform="translate(1.187 35.315)">
		<path id="Path_99330_00000085956161600782716040000011432009345857429427_" class="st5" d="M29.42-67.26
			c-0.06,1.13,0.8,2.11,1.94,2.17c1.13,0.06,2.11-0.8,2.17-1.94c0.06-1.13-0.8-2.11-1.94-2.17c-0.03,0-0.06,0-0.09,0
			c-1.11-0.04-2.04,0.82-2.08,1.93C29.42-67.27,29.42-67.27,29.42-67.26z"/>
		<path id="Path_99331_00000083062747009639235830000007953505982555139765_" class="st5" d="M10.92-67.48
			c-0.06,1.13,0.8,2.11,1.94,2.17c1.13,0.06,2.11-0.8,2.17-1.94c0.06-1.13-0.8-2.11-1.94-2.17c-0.03,0-0.06,0-0.09,0
			c-1.11-0.04-2.04,0.82-2.08,1.93C10.92-67.48,10.92-67.48,10.92-67.48z"/>
		<path id="Path_99332_00000087402774058588625340000007389355401323263167_" class="st5" d="M-7.56-67.69
			c-0.06,1.13,0.81,2.1,1.94,2.17c1.13,0.06,2.1-0.81,2.17-1.94c0.06-1.13-0.81-2.1-1.94-2.17c-0.03,0-0.06,0-0.09,0
			C-6.59-69.67-7.52-68.81-7.56-67.69C-7.56-67.69-7.56-67.69-7.56-67.69z"/>
		<path id="Path_99333_00000171685223129060256560000008123320166292504196_" class="st5" d="M-26.05-67.9
			c-0.06,1.13,0.8,2.11,1.94,2.17c1.13,0.06,2.11-0.8,2.17-1.94c0.06-1.13-0.8-2.11-1.94-2.17c-0.03,0-0.06,0-0.09,0
			c-1.11-0.04-2.04,0.82-2.08,1.93C-26.05-67.91-26.05-67.91-26.05-67.9z"/>
		<path id="Path_99334_00000033328034644239030940000012934435848689584568_" class="st5" d="M-44.54-68.12
			c-0.06,1.13,0.8,2.1,1.94,2.17c1.13,0.06,2.1-0.8,2.17-1.94c0.06-1.13-0.8-2.1-1.94-2.17c-0.03,0-0.06,0-0.09,0
			c-1.11-0.04-2.04,0.82-2.08,1.93C-44.54-68.12-44.54-68.12-44.54-68.12z"/>
		<path id="Path_99335_00000070805410258427512940000007927494049098153661_" class="st5" d="M-63.03-68.33
			c-0.06,1.13,0.8,2.1,1.94,2.17c1.13,0.06,2.1-0.8,2.17-1.94c0.06-1.13-0.8-2.1-1.94-2.17c-0.03,0-0.06,0-0.09,0
			c-1.11-0.04-2.04,0.82-2.08,1.93C-63.03-68.34-63.03-68.34-63.03-68.33z"/>
		<path id="Path_99336_00000080910235159004609590000001557354584172453560_" class="st5" d="M-81.52-68.54
			c-0.06,1.13,0.8,2.11,1.94,2.17c1.13,0.06,2.11-0.8,2.17-1.94c0.06-1.13-0.8-2.11-1.94-2.17c-0.03,0-0.06,0-0.09,0
			c-1.11-0.04-2.04,0.82-2.08,1.93C-81.52-68.55-81.52-68.55-81.52-68.54z"/>
		<path id="Path_99337_00000175316076746797509810000013432182844518674589_" class="st5" d="M-100.01-68.75
			c-0.06,1.13,0.81,2.1,1.94,2.16c1.13,0.06,2.1-0.81,2.17-1.94c0.06-1.13-0.81-2.1-1.94-2.16c-0.03,0-0.06,0-0.09,0
			c-1.11-0.04-2.04,0.82-2.08,1.93C-100.01-68.77-100.01-68.76-100.01-68.75z"/>
		<path id="Path_99338_00000170983122042997181410000000486438190634812855_" class="st5" d="M-118.5-68.97
			c-0.06,1.13,0.8,2.11,1.94,2.17c1.13,0.06,2.11-0.8,2.17-1.94c0.06-1.13-0.8-2.11-1.94-2.17c-0.03,0-0.06,0-0.09,0
			c-1.11-0.04-2.04,0.82-2.08,1.93C-118.5-68.98-118.5-68.98-118.5-68.97z"/>
		<path id="Path_99339_00000097479966669114399930000000749382624184529853_" class="st5" d="M-136.98-69.18
			c-0.06,1.13,0.8,2.1,1.94,2.17c1.13,0.06,2.1-0.8,2.17-1.94c0.06-1.13-0.8-2.1-1.94-2.17c-0.03,0-0.06,0-0.09,0
			c-1.11-0.04-2.04,0.82-2.08,1.93C-136.98-69.19-136.98-69.19-136.98-69.18z"/>
		<path id="Path_99340_00000011752596679780222770000005676017399083752364_" class="st5" d="M-155.47-69.39
			c-0.06,1.13,0.8,2.11,1.94,2.17s2.11-0.8,2.17-1.94c0.06-1.13-0.8-2.11-1.94-2.17c-0.03,0-0.06,0-0.09,0
			c-1.11-0.04-2.04,0.82-2.08,1.93C-155.47-69.4-155.47-69.4-155.47-69.39z"/>
	</g>
	<g id="Group_53324_00000127030682135774985740000009553913446891639940_" transform="translate(1.04 47.088)">
		<path id="Path_99341_00000093868544129620304220000004732678521948093115_" class="st5" d="M29.37-63.31
			c-0.06,1.13,0.8,2.1,1.94,2.17c1.13,0.06,2.1-0.8,2.17-1.94c0.06-1.13-0.8-2.1-1.94-2.17c-0.03,0-0.06,0-0.09,0
			c-1.11-0.04-2.04,0.82-2.08,1.93C29.37-63.32,29.37-63.31,29.37-63.31z"/>
		<path id="Path_99342_00000054977833250651356280000011095529862442932867_" class="st5" d="M10.87-63.52
			c-0.06,1.13,0.81,2.1,1.94,2.17c1.13,0.06,2.1-0.81,2.17-1.94c0.06-1.13-0.81-2.1-1.94-2.17c-0.03,0-0.06,0-0.09,0
			c-1.11-0.04-2.04,0.82-2.08,1.93C10.87-63.53,10.87-63.53,10.87-63.52z"/>
		<path id="Path_99343_00000118385508286713009150000009809381857134549689_" class="st5" d="M-7.61-63.73
			c-0.06,1.13,0.8,2.1,1.94,2.17c1.13,0.06,2.1-0.8,2.17-1.94c0.06-1.13-0.8-2.1-1.94-2.17c-0.03,0-0.06,0-0.09,0
			c-1.11-0.04-2.04,0.82-2.08,1.93C-7.61-63.74-7.61-63.74-7.61-63.73z"/>
		<path id="Path_99344_00000095322238884875343990000008728817559867823030_" class="st5" d="M-26.1-63.95
			c-0.06,1.13,0.81,2.1,1.94,2.17c1.13,0.06,2.1-0.81,2.17-1.94c0.06-1.13-0.81-2.1-1.94-2.17c-0.03,0-0.06,0-0.09,0
			c-1.11-0.04-2.04,0.82-2.08,1.93C-26.1-63.96-26.1-63.95-26.1-63.95z"/>
		<path id="Path_99345_00000058560037286485008240000004871438980953351330_" class="st5" d="M-44.59-64.16
			c-0.06,1.13,0.8,2.11,1.94,2.17c1.13,0.06,2.11-0.8,2.17-1.94c0.06-1.13-0.8-2.11-1.94-2.17c-0.03,0-0.06,0-0.09,0
			c-1.11-0.04-2.04,0.82-2.08,1.93C-44.59-64.17-44.59-64.17-44.59-64.16z"/>
		<path id="Path_99346_00000078032428825602684740000007000907207132772541_" class="st5" d="M-63.08-64.38
			c-0.06,1.13,0.8,2.1,1.94,2.17c1.13,0.06,2.1-0.8,2.17-1.94c0.06-1.13-0.8-2.1-1.94-2.17c-0.03,0-0.06,0-0.09,0
			c-1.11-0.04-2.04,0.82-2.08,1.93C-63.08-64.38-63.08-64.38-63.08-64.38z"/>
		<path id="Path_99347_00000016773687837831884320000013779932042842671033_" class="st5" d="M-81.57-64.59
			c-0.06,1.13,0.81,2.1,1.94,2.17c1.13,0.06,2.1-0.81,2.17-1.94s-0.81-2.1-1.94-2.17c-0.03,0-0.06,0-0.09,0
			c-1.11-0.04-2.04,0.82-2.08,1.93C-81.57-64.6-81.57-64.59-81.57-64.59z"/>
		<path id="Path_99348_00000176033676131690779370000007929751224627078552_" class="st5" d="M-100.06-64.8
			c-0.06,1.13,0.8,2.1,1.94,2.17c1.13,0.06,2.1-0.8,2.17-1.94c0.06-1.13-0.8-2.1-1.94-2.17c-0.03,0-0.06,0-0.09,0
			c-1.11-0.04-2.04,0.82-2.08,1.93C-100.06-64.81-100.06-64.81-100.06-64.8z"/>
		<path id="Path_99349_00000013913557645503839370000002579429586512152491_" class="st5" d="M-118.55-65.02
			c-0.06,1.13,0.8,2.11,1.94,2.17c1.13,0.06,2.11-0.8,2.17-1.94c0.06-1.13-0.8-2.11-1.94-2.17c-0.03,0-0.06,0-0.09,0
			c-1.11-0.04-2.04,0.82-2.08,1.93C-118.55-65.03-118.55-65.02-118.55-65.02z"/>
		<path id="Path_99350_00000158001629671993701430000012412014743707055009_" class="st5" d="M-137.04-65.23
			c-0.06,1.13,0.81,2.1,1.94,2.17s2.1-0.81,2.17-1.94c0.06-1.13-0.81-2.1-1.94-2.17c-0.03,0-0.06,0-0.09,0
			c-1.11-0.04-2.04,0.82-2.08,1.93C-137.04-65.24-137.04-65.23-137.04-65.23z"/>
		<path id="Path_99351_00000103960810376417821870000008642217690618004883_" class="st5" d="M-155.52-65.44
			c-0.06,1.13,0.8,2.1,1.94,2.17c1.13,0.06,2.1-0.8,2.17-1.94c0.06-1.13-0.8-2.1-1.94-2.17c-0.03,0-0.06,0-0.09,0
			c-1.11-0.04-2.04,0.82-2.08,1.93C-155.52-65.45-155.52-65.45-155.52-65.44z"/>
	</g>
	<g id="Group_53325_00000093148310197758009780000001651529680508337570_" transform="translate(0.891 58.859)">
		<path id="Path_99352_00000181810259494058184870000015904606753162582453_" class="st5" d="M29.32-59.35
			c-0.06,1.13,0.8,2.1,1.94,2.17c1.13,0.06,2.1-0.8,2.17-1.94c0.06-1.13-0.8-2.1-1.94-2.17c-0.03,0-0.06,0-0.09,0
			c-1.11-0.04-2.04,0.82-2.08,1.93C29.32-59.36,29.32-59.36,29.32-59.35z"/>
		<path id="Path_99353_00000106121122297176482590000007224098945993706415_" class="st5" d="M10.82-59.57
			c-0.06,1.13,0.8,2.11,1.94,2.17c1.13,0.06,2.11-0.8,2.17-1.94c0.06-1.13-0.8-2.11-1.94-2.17c-0.03,0-0.06,0-0.09,0
			c-1.11-0.04-2.04,0.82-2.08,1.93C10.82-59.58,10.82-59.57,10.82-59.57z"/>
		<path id="Path_99354_00000098908319226785908890000009904694451403564472_" class="st5" d="M-7.66-59.78
			c-0.06,1.13,0.81,2.1,1.94,2.17c1.13,0.06,2.1-0.81,2.17-1.94s-0.81-2.1-1.94-2.17c-0.03,0-0.06,0-0.09,0
			c-1.11-0.04-2.04,0.82-2.08,1.93C-7.66-59.8-7.66-59.79-7.66-59.78z"/>
		<path id="Path_99355_00000029752691501256819250000013271633368856433325_" class="st5" d="M-26.15-59.99
			c-0.06,1.13,0.8,2.1,1.94,2.17c1.13,0.06,2.1-0.8,2.17-1.94c0.06-1.13-0.8-2.1-1.94-2.17c-0.03,0-0.06,0-0.09,0
			c-1.11-0.04-2.04,0.82-2.08,1.93C-26.15-60-26.15-60-26.15-59.99z"/>
		<path id="Path_99356_00000046327507400105204550000016063885656093426326_" class="st5" d="M-44.64-60.21
			c-0.06,1.13,0.8,2.11,1.94,2.17c1.13,0.06,2.11-0.8,2.17-1.94c0.06-1.13-0.8-2.11-1.94-2.17c-0.03,0-0.06,0-0.09,0
			c-1.11-0.04-2.04,0.82-2.08,1.93C-44.64-60.22-44.64-60.21-44.64-60.21z"/>
		<path id="Path_99357_00000181779790197082589730000002981279644523243197_" class="st5" d="M-63.13-60.42
			c-0.06,1.13,0.81,2.1,1.94,2.16c1.13,0.06,2.1-0.81,2.17-1.94c0.06-1.13-0.81-2.1-1.94-2.16c-0.03,0-0.06,0-0.09,0
			c-1.11-0.04-2.04,0.82-2.08,1.93C-63.13-60.43-63.13-60.42-63.13-60.42z"/>
		<path id="Path_99358_00000018921907832405145270000004225656246816943276_" class="st5" d="M-81.62-60.63
			c-0.07,1.13,0.8,2.11,1.93,2.17c1.13,0.07,2.11-0.8,2.17-1.93c0.07-1.13-0.8-2.11-1.93-2.17c-0.03,0-0.06,0-0.09,0
			C-80.65-62.61-81.58-61.74-81.62-60.63z"/>
		<path id="Path_99359_00000032616939416364744190000007078317174174586498_" class="st5" d="M-100.11-60.85
			c-0.06,1.13,0.8,2.11,1.94,2.17c1.13,0.06,2.11-0.8,2.17-1.94c0.06-1.13-0.8-2.11-1.94-2.17c-0.03,0-0.06,0-0.09,0
			c-1.11-0.04-2.04,0.82-2.08,1.93C-100.11-60.86-100.11-60.85-100.11-60.85z"/>
		<path id="Path_99360_00000064346133422574509690000017766395368414683069_" class="st5" d="M-118.6-61.06
			c-0.06,1.13,0.8,2.1,1.94,2.17c1.13,0.06,2.1-0.8,2.17-1.94s-0.8-2.1-1.94-2.17c-0.03,0-0.06,0-0.09,0
			c-1.11-0.04-2.04,0.82-2.08,1.93C-118.6-61.07-118.6-61.07-118.6-61.06z"/>
		<path id="Path_99361_00000172405432697419984500000014679959577064086405_" class="st5" d="M-137.09-61.27
			c-0.06,1.13,0.8,2.11,1.94,2.17s2.11-0.8,2.17-1.94c0.06-1.13-0.8-2.11-1.94-2.17c-0.03,0-0.06,0-0.09,0
			c-1.11-0.04-2.04,0.82-2.08,1.93C-137.09-61.28-137.09-61.28-137.09-61.27z"/>
		<path id="Path_99362_00000159462898795160370480000004442941681141999275_" class="st5" d="M-155.57-61.48
			c-0.06,1.13,0.81,2.1,1.94,2.16c1.13,0.06,2.1-0.81,2.17-1.94c0.06-1.13-0.81-2.1-1.94-2.16c-0.03,0-0.06,0-0.09,0
			c-1.11-0.04-2.04,0.82-2.08,1.93C-155.57-61.49-155.57-61.49-155.57-61.48z"/>
	</g>
	<g id="Group_53326_00000012430461169183783290000016741590452320334731_" transform="translate(0.742 70.632)">
		<path id="Path_99363_00000159470080457304075330000010140605860381047722_" class="st5" d="M29.27-55.4
			c-0.06,1.13,0.8,2.11,1.94,2.17c1.13,0.06,2.11-0.8,2.17-1.94c0.06-1.13-0.8-2.11-1.94-2.17c-0.03,0-0.06,0-0.09,0
			c-1.11-0.04-2.04,0.82-2.08,1.93C29.27-55.41,29.27-55.4,29.27-55.4z"/>
		<path id="Path_99364_00000035500832399592519220000001922336661514354110_" class="st5" d="M10.77-55.61
			c-0.06,1.13,0.81,2.1,1.94,2.16c1.13,0.06,2.1-0.81,2.17-1.94c0.06-1.13-0.81-2.1-1.94-2.16c-0.03,0-0.06,0-0.09,0
			c-1.11-0.04-2.04,0.82-2.08,1.93C10.77-55.62,10.77-55.62,10.77-55.61z"/>
		<path id="Path_99365_00000109718962975061441930000017687296467717556145_" class="st5" d="M-7.71-55.82
			c-0.06,1.13,0.8,2.11,1.94,2.17c1.13,0.06,2.11-0.8,2.17-1.94c0.06-1.13-0.8-2.11-1.94-2.17c-0.03,0-0.06,0-0.09,0
			c-1.11-0.04-2.04,0.82-2.08,1.93C-7.71-55.84-7.71-55.83-7.71-55.82z"/>
		<path id="Path_99366_00000124842931053383164100000002835379340982878363_" class="st5" d="M-26.2-56.04
			c-0.06,1.13,0.8,2.1,1.94,2.17c1.13,0.06,2.1-0.8,2.17-1.94c0.06-1.13-0.8-2.1-1.94-2.17c-0.03,0-0.06,0-0.09,0
			c-1.11-0.04-2.04,0.82-2.08,1.93C-26.2-56.05-26.2-56.04-26.2-56.04z"/>
		<path id="Path_99367_00000010306792413259246330000000957666021835744443_" class="st5" d="M-44.69-56.25
			c-0.06,1.13,0.8,2.11,1.94,2.17c1.13,0.06,2.11-0.8,2.17-1.94c0.06-1.13-0.8-2.11-1.94-2.17c-0.03,0-0.06,0-0.09,0
			c-1.11-0.04-2.04,0.82-2.08,1.93C-44.69-56.26-44.69-56.26-44.69-56.25z"/>
		<path id="Path_99368_00000134207347261605008800000009215866801621105824_" class="st5" d="M-63.18-56.47
			c-0.06,1.13,0.8,2.11,1.94,2.17c1.13,0.06,2.11-0.8,2.17-1.94c0.06-1.13-0.8-2.11-1.94-2.17c-0.03,0-0.06,0-0.09,0
			c-1.11-0.04-2.04,0.82-2.08,1.93C-63.18-56.48-63.18-56.47-63.18-56.47z"/>
		<path id="Path_99369_00000168815702376241637450000011783832483477490054_" class="st5" d="M-81.67-56.68
			c-0.06,1.13,0.8,2.1,1.94,2.17c1.13,0.06,2.1-0.8,2.17-1.94c0.06-1.13-0.8-2.1-1.94-2.17c-0.03,0-0.06,0-0.09,0
			c-1.11-0.04-2.04,0.82-2.08,1.93C-81.67-56.69-81.67-56.68-81.67-56.68z"/>
		<path id="Path_99370_00000096744155076857338300000001183232640342505611_" class="st5" d="M-100.16-56.89
			c-0.06,1.13,0.8,2.11,1.94,2.17s2.11-0.8,2.17-1.94c0.06-1.13-0.8-2.11-1.94-2.17c-0.03,0-0.06,0-0.09,0
			c-1.11-0.04-2.04,0.82-2.08,1.93C-100.16-56.9-100.16-56.9-100.16-56.89z"/>
		<path id="Path_99371_00000167389014218739708520000004274690538972443307_" class="st5" d="M-118.65-57.11
			c-0.06,1.13,0.8,2.1,1.94,2.17c1.13,0.06,2.1-0.8,2.17-1.94c0.06-1.13-0.8-2.1-1.94-2.17c-0.03,0-0.06,0-0.09,0
			c-1.11-0.04-2.04,0.82-2.08,1.93C-118.65-57.12-118.65-57.11-118.65-57.11z"/>
		<path id="Path_99372_00000106106054983220092620000004039893639319371141_" class="st5" d="M-137.14-57.32
			c-0.06,1.13,0.81,2.1,1.94,2.17c1.13,0.06,2.1-0.81,2.17-1.94c0.06-1.13-0.81-2.1-1.94-2.17c-0.03,0-0.06,0-0.09,0
			c-1.11-0.04-2.04,0.82-2.08,1.93C-137.14-57.33-137.14-57.32-137.14-57.32z"/>
		<path id="Path_99373_00000179616568113253687810000005055128996212192134_" class="st5" d="M-155.62-57.53
			c-0.06,1.13,0.8,2.11,1.94,2.17c1.13,0.06,2.11-0.8,2.17-1.94c0.06-1.13-0.8-2.11-1.94-2.17c-0.03,0-0.06,0-0.09,0
			c-1.11-0.04-2.04,0.82-2.08,1.93C-155.62-57.54-155.62-57.54-155.62-57.53z"/>
	</g>
	<g id="Group_53327_00000124851792091345831310000017546218537500020148_" transform="translate(0.594 82.405)">
		<path id="Path_99374_00000172434078186691927190000013413095803430692031_" class="st5" d="M29.22-51.44
			c-0.06,1.13,0.81,2.1,1.94,2.17c1.13,0.06,2.1-0.81,2.17-1.94c0.06-1.13-0.81-2.1-1.94-2.17c-0.03,0-0.06,0-0.09,0
			c-1.11-0.04-2.04,0.82-2.08,1.93C29.22-51.45,29.22-51.45,29.22-51.44z"/>
		<path id="Path_99375_00000161613602935166387110000017608824107735367336_" class="st5" d="M10.73-51.66
			c-0.06,1.13,0.8,2.1,1.94,2.17c1.13,0.06,2.1-0.8,2.17-1.94c0.06-1.13-0.8-2.1-1.94-2.17c-0.03,0-0.06,0-0.09,0
			c-1.11-0.04-2.04,0.82-2.08,1.93C10.73-51.67,10.73-51.66,10.73-51.66z"/>
		<path id="Path_99376_00000151533811548544860990000005496045003688910521_" class="st5" d="M-7.76-51.87
			c-0.06,1.13,0.8,2.11,1.94,2.17c1.13,0.06,2.11-0.8,2.17-1.94c0.06-1.13-0.8-2.11-1.94-2.17c-0.03,0-0.06,0-0.09,0
			c-1.11-0.04-2.04,0.82-2.08,1.93C-7.76-51.88-7.76-51.88-7.76-51.87z"/>
		<path id="Path_99377_00000063600683690166885200000002842234018996244891_" class="st5" d="M-26.25-52.09
			c-0.06,1.13,0.8,2.11,1.94,2.17c1.13,0.06,2.11-0.8,2.17-1.94c0.06-1.13-0.8-2.11-1.94-2.17c-0.03,0-0.06,0-0.09,0
			c-1.11-0.04-2.04,0.82-2.08,1.93C-26.25-52.09-26.25-52.09-26.25-52.09z"/>
		<path id="Path_99378_00000127022478316415977420000015982458040879211443_" class="st5" d="M-44.74-52.3
			c-0.06,1.13,0.8,2.1,1.94,2.17c1.13,0.06,2.1-0.8,2.17-1.94c0.06-1.13-0.8-2.1-1.94-2.17c-0.03,0-0.06,0-0.09,0
			c-1.11-0.04-2.04,0.82-2.08,1.93C-44.74-52.31-44.74-52.3-44.74-52.3z"/>
		<path id="Path_99379_00000068671661621576508020000014735761620568636574_" class="st5" d="M-63.23-52.51
			c-0.06,1.13,0.81,2.1,1.94,2.17c1.13,0.06,2.1-0.81,2.17-1.94c0.06-1.13-0.81-2.1-1.94-2.17c-0.03,0-0.06,0-0.09,0
			c-1.11-0.04-2.04,0.82-2.08,1.93C-63.23-52.52-63.23-52.52-63.23-52.51z"/>
		<path id="Path_99380_00000049202621337305868990000017159827755522359486_" class="st5" d="M-81.72-52.73
			c-0.06,1.13,0.8,2.11,1.94,2.17c1.13,0.06,2.11-0.8,2.17-1.94c0.06-1.13-0.8-2.11-1.94-2.17c-0.03,0-0.06,0-0.09,0
			c-1.11-0.04-2.04,0.82-2.08,1.93C-81.72-52.73-81.72-52.73-81.72-52.73z"/>
		<path id="Path_99381_00000163775180166263596630000002083571192998632634_" class="st5" d="M-100.21-52.94
			c-0.06,1.13,0.8,2.11,1.94,2.17c1.13,0.06,2.11-0.8,2.17-1.94c0.06-1.13-0.8-2.11-1.94-2.17c-0.03,0-0.06,0-0.09,0
			C-99.24-54.92-100.17-54.05-100.21-52.94C-100.21-52.94-100.21-52.94-100.21-52.94z"/>
		<path id="Path_99382_00000171686814327088441380000014100917688550274959_" class="st5" d="M-118.7-53.15
			c-0.06,1.13,0.8,2.11,1.94,2.17c1.13,0.06,2.11-0.8,2.17-1.94c0.06-1.13-0.8-2.11-1.94-2.17c-0.03,0-0.06,0-0.09,0
			c-1.11-0.04-2.04,0.82-2.08,1.93C-118.7-53.16-118.7-53.16-118.7-53.15z"/>
		<path id="Path_99383_00000140729961594491473340000016268050868448312468_" class="st5" d="M-137.18-53.37
			c-0.06,1.13,0.8,2.1,1.94,2.17c1.13,0.06,2.1-0.8,2.17-1.94c0.06-1.13-0.8-2.1-1.94-2.17c-0.03,0-0.06,0-0.09,0
			c-1.11-0.04-2.04,0.82-2.08,1.93C-137.18-53.38-137.18-53.37-137.18-53.37z"/>
		<path id="Path_99384_00000030445997011608300930000008680318126052180370_" class="st5" d="M-155.67-53.58
			c-0.06,1.13,0.8,2.11,1.94,2.17c1.13,0.06,2.11-0.8,2.17-1.94c0.06-1.13-0.8-2.11-1.94-2.17c-0.03,0-0.06,0-0.09,0
			c-1.11-0.04-2.04,0.82-2.08,1.93C-155.67-53.59-155.67-53.58-155.67-53.58z"/>
	</g>
	<g id="Group_53328_00000010271505967257138600000012328795772767873190_" transform="translate(0.445 94.176)">
		<path id="Path_99385_00000013886590721815232290000003066951063617172129_" class="st5" d="M29.17-47.49
			c-0.06,1.13,0.8,2.11,1.94,2.17c1.13,0.06,2.11-0.8,2.17-1.94c0.06-1.13-0.8-2.11-1.94-2.17c-0.03,0-0.06,0-0.09,0
			c-1.11-0.04-2.04,0.82-2.08,1.93C29.17-47.5,29.17-47.49,29.17-47.49z"/>
		<path id="Path_99386_00000102530431861090947770000013882907692703703458_" class="st5" d="M10.68-47.7
			c-0.06,1.13,0.8,2.11,1.94,2.17c1.13,0.06,2.11-0.8,2.17-1.94c0.06-1.13-0.8-2.11-1.94-2.17c-0.03,0-0.06,0-0.09,0
			c-1.11-0.04-2.04,0.82-2.08,1.93C10.68-47.71,10.68-47.71,10.68-47.7z"/>
		<path id="Path_99387_00000068677711572148326500000011627741305403007115_" class="st5" d="M-7.81-47.91
			c-0.06,1.13,0.8,2.1,1.94,2.17c1.13,0.06,2.1-0.8,2.17-1.94c0.06-1.13-0.8-2.1-1.94-2.17c-0.03,0-0.06,0-0.09,0
			c-1.11-0.04-2.04,0.82-2.08,1.93C-7.81-47.92-7.81-47.92-7.81-47.91z"/>
		<path id="Path_99388_00000117634224005659286200000014573230699218794122_" class="st5" d="M-26.3-48.13
			c-0.06,1.13,0.8,2.11,1.94,2.17c1.13,0.06,2.11-0.8,2.17-1.94c0.06-1.13-0.8-2.11-1.94-2.17c-0.03,0-0.06,0-0.09,0
			c-1.11-0.04-2.04,0.82-2.08,1.93C-26.3-48.14-26.3-48.13-26.3-48.13z"/>
		<path id="Path_99389_00000106838963859190377070000017770027513066809488_" class="st5" d="M-44.79-48.34
			c-0.06,1.13,0.81,2.1,1.94,2.16c1.13,0.06,2.1-0.81,2.17-1.94c0.06-1.13-0.81-2.1-1.94-2.16c-0.03,0-0.06,0-0.09,0
			c-1.11-0.04-2.04,0.82-2.08,1.93C-44.79-48.35-44.79-48.35-44.79-48.34z"/>
		<path id="Path_99390_00000101818052055178548780000009608977535252979870_" class="st5" d="M-63.28-48.56
			c-0.06,1.13,0.8,2.11,1.94,2.17c1.13,0.06,2.11-0.8,2.17-1.94c0.06-1.13-0.8-2.11-1.94-2.17c-0.03,0-0.06,0-0.09,0
			c-1.11-0.04-2.04,0.82-2.08,1.93C-63.28-48.57-63.28-48.56-63.28-48.56z"/>
		<path id="Path_99391_00000165949403858341578020000000245762011177119897_" class="st5" d="M-81.77-48.77
			c-0.06,1.13,0.8,2.11,1.94,2.17s2.11-0.8,2.17-1.94c0.06-1.13-0.8-2.11-1.94-2.17c-0.03,0-0.06,0-0.09,0
			c-1.11-0.04-2.04,0.82-2.08,1.93C-81.77-48.78-81.77-48.78-81.77-48.77z"/>
		<path id="Path_99392_00000007407226557094543960000001753174202432250246_" class="st5" d="M-100.26-48.98
			c-0.06,1.13,0.81,2.1,1.94,2.16c1.13,0.06,2.1-0.81,2.17-1.94c0.06-1.13-0.81-2.1-1.94-2.16c-0.03,0-0.06,0-0.09,0
			c-1.11-0.04-2.04,0.82-2.08,1.93C-100.25-48.99-100.26-48.99-100.26-48.98z"/>
		<path id="Path_99393_00000072265870839429966320000002486304529568867481_" class="st5" d="M-118.75-49.2
			c-0.06,1.13,0.8,2.11,1.94,2.17s2.11-0.8,2.17-1.94c0.06-1.13-0.8-2.11-1.94-2.17c-0.03,0-0.06,0-0.09,0
			c-1.11-0.04-2.04,0.82-2.08,1.93C-118.75-49.21-118.75-49.2-118.75-49.2z"/>
		<path id="Path_99394_00000132810458478076001020000011245752929480764318_" class="st5" d="M-137.23-49.41
			c-0.06,1.13,0.8,2.11,1.94,2.17c1.13,0.06,2.11-0.8,2.17-1.94c0.06-1.13-0.8-2.11-1.94-2.17c-0.03,0-0.06,0-0.09,0
			c-1.11-0.04-2.04,0.82-2.08,1.93C-137.23-49.42-137.23-49.41-137.23-49.41z"/>
		<path id="Path_99395_00000125572241923628561230000000041995700366889875_" class="st5" d="M-155.72-49.62
			c-0.06,1.13,0.8,2.11,1.94,2.17c1.13,0.06,2.11-0.8,2.17-1.94c0.06-1.13-0.8-2.11-1.94-2.17c-0.03,0-0.06,0-0.09,0
			c-1.11-0.04-2.04,0.82-2.08,1.93C-155.72-49.64-155.72-49.63-155.72-49.62z"/>
	</g>
	<g id="Group_53329_00000068639796488029558110000003682580169188557224_" transform="translate(0.298 105.949)">
		<path id="Path_99396_00000175281045995236421480000001087015303288731308_" class="st5" d="M29.12-43.53
			c-0.06,1.13,0.81,2.1,1.94,2.16c1.13,0.06,2.1-0.81,2.17-1.94c0.06-1.13-0.81-2.1-1.94-2.16c-0.03,0-0.06,0-0.09,0
			c-1.11-0.04-2.04,0.82-2.08,1.93C29.12-43.54,29.12-43.54,29.12-43.53z"/>
		<path id="Path_99397_00000090294090286949107620000016722986452408403350_" class="st5" d="M10.63-43.75
			c-0.06,1.13,0.8,2.11,1.94,2.17c1.13,0.06,2.11-0.8,2.17-1.94c0.06-1.13-0.8-2.11-1.94-2.17c-0.03,0-0.06,0-0.09,0
			c-1.11-0.04-2.04,0.82-2.08,1.93C10.63-43.76,10.63-43.75,10.63-43.75z"/>
		<path id="Path_99398_00000092448218194971206000000004104187333132754822_" class="st5" d="M-7.86-43.96
			c-0.06,1.13,0.8,2.1,1.94,2.17c1.13,0.06,2.1-0.8,2.17-1.94c0.06-1.13-0.8-2.1-1.94-2.17c-0.03,0-0.06,0-0.09,0
			c-1.11-0.04-2.04,0.82-2.08,1.93C-7.86-43.97-7.86-43.97-7.86-43.96z"/>
		<path id="Path_99399_00000050639862711195865580000012311182034248214661_" class="st5" d="M-26.35-44.17
			c-0.06,1.13,0.81,2.1,1.94,2.17c1.13,0.06,2.1-0.81,2.17-1.94s-0.81-2.1-1.94-2.17c-0.03,0-0.06,0-0.09,0
			C-25.38-46.16-26.31-45.29-26.35-44.17C-26.35-44.18-26.35-44.18-26.35-44.17z"/>
		<path id="Path_99400_00000016075272161872807100000015004220997334612412_" class="st5" d="M-44.84-44.39
			c-0.06,1.13,0.8,2.11,1.94,2.17c1.13,0.06,2.11-0.8,2.17-1.94c0.06-1.13-0.8-2.11-1.94-2.17c-0.03,0-0.06,0-0.09,0
			c-1.11-0.04-2.04,0.82-2.08,1.93C-44.84-44.4-44.84-44.39-44.84-44.39z"/>
		<path id="Path_99401_00000060746567863675159140000015660931155967203747_" class="st5" d="M-63.33-44.6
			c-0.06,1.13,0.8,2.1,1.94,2.17c1.13,0.06,2.1-0.8,2.17-1.94c0.06-1.13-0.8-2.1-1.94-2.17c-0.03,0-0.06,0-0.09,0
			c-1.11-0.04-2.04,0.82-2.08,1.93C-63.33-44.61-63.33-44.61-63.33-44.6z"/>
		<path id="Path_99402_00000049932581397499680910000001491667607017929369_" class="st5" d="M-81.82-44.81
			c-0.06,1.13,0.81,2.1,1.94,2.17c1.13,0.06,2.1-0.81,2.17-1.94s-0.81-2.1-1.94-2.17c-0.03,0-0.06,0-0.09,0
			c-1.11-0.04-2.04,0.82-2.08,1.93C-81.82-44.83-81.82-44.82-81.82-44.81z"/>
		<path id="Path_99403_00000090995443543261581720000005791398877965024408_" class="st5" d="M-100.31-45.03
			c-0.06,1.13,0.8,2.11,1.94,2.17c1.13,0.06,2.11-0.8,2.17-1.94c0.06-1.13-0.8-2.11-1.94-2.17c-0.03,0-0.06,0-0.09,0
			c-1.11-0.04-2.04,0.82-2.08,1.93C-100.31-45.04-100.31-45.03-100.31-45.03z"/>
		<path id="Path_99404_00000031180774314496488190000000514433861593473692_" class="st5" d="M-118.8-45.24
			c-0.06,1.13,0.81,2.1,1.94,2.17c1.13,0.06,2.1-0.81,2.17-1.94s-0.81-2.1-1.94-2.17c-0.03,0-0.06,0-0.09,0
			C-117.83-47.22-118.76-46.36-118.8-45.24C-118.8-45.24-118.8-45.24-118.8-45.24z"/>
		<path id="Path_99405_00000066478830683440599680000000225558789367237295_" class="st5" d="M-137.28-45.46
			c-0.06,1.13,0.8,2.11,1.94,2.17s2.11-0.8,2.17-1.94c0.06-1.13-0.8-2.11-1.94-2.17c-0.03,0-0.06,0-0.09,0
			c-1.11-0.04-2.04,0.82-2.08,1.93C-137.28-45.47-137.28-45.46-137.28-45.46z"/>
		<path id="Path_99406_00000029025967678681286870000000599741862284982668_" class="st5" d="M-155.77-45.67
			c-0.06,1.13,0.8,2.1,1.94,2.17c1.13,0.06,2.1-0.8,2.17-1.94c0.06-1.13-0.8-2.1-1.94-2.17c-0.03,0-0.06,0-0.09,0
			c-1.11-0.04-2.04,0.82-2.08,1.93C-155.77-45.68-155.77-45.67-155.77-45.67z"/>
	</g>
	<g id="Group_53330_00000001653998976790668340000007304632728682057407_" transform="translate(0.149 117.72)">
		<path id="Path_99407_00000021086303660178313430000015970765299981221555_" class="st5" d="M29.07-39.58
			c-0.06,1.13,0.8,2.1,1.94,2.17c1.13,0.06,2.1-0.8,2.17-1.94c0.06-1.13-0.8-2.1-1.94-2.17c-0.03,0-0.06,0-0.09,0
			c-1.11-0.04-2.04,0.82-2.08,1.93C29.07-39.59,29.07-39.58,29.07-39.58z"/>
		<path id="Path_99408_00000134969809416282454810000005639518553159816872_" class="st5" d="M10.58-39.79
			c-0.06,1.13,0.8,2.11,1.94,2.17c1.13,0.06,2.11-0.8,2.17-1.94c0.06-1.13-0.8-2.11-1.94-2.17c-0.03,0-0.06,0-0.09,0
			c-1.11-0.04-2.04,0.82-2.08,1.93C10.58-39.8,10.58-39.8,10.58-39.79z"/>
		<path id="Path_99409_00000039825906529135776220000007911809860736016773_" class="st5" d="M-7.91-40
			c-0.06,1.13,0.81,2.1,1.94,2.17c1.13,0.06,2.1-0.81,2.17-1.94c0.06-1.13-0.81-2.1-1.94-2.17c-0.03,0-0.06,0-0.09,0
			c-1.11-0.04-2.04,0.82-2.08,1.93C-7.91-40.02-7.91-40.01-7.91-40z"/>
		<path id="Path_99410_00000057120966924165769550000006452129166565434002_" class="st5" d="M-26.4-40.22
			c-0.06,1.13,0.8,2.1,1.94,2.17c1.13,0.06,2.1-0.8,2.17-1.94c0.06-1.13-0.8-2.1-1.94-2.17c-0.03,0-0.06,0-0.09,0
			c-1.11-0.04-2.04,0.82-2.08,1.93C-26.4-40.23-26.4-40.23-26.4-40.22z"/>
		<path id="Path_99411_00000045586295607912158680000010157820826642969746_" class="st5" d="M-44.89-40.43
			c-0.06,1.13,0.8,2.11,1.94,2.17c1.13,0.06,2.11-0.8,2.17-1.94c0.06-1.13-0.8-2.11-1.94-2.17c-0.03,0-0.06,0-0.09,0
			c-1.11-0.04-2.04,0.82-2.08,1.93C-44.89-40.44-44.89-40.44-44.89-40.43z"/>
		<path id="Path_99412_00000082362561769289149210000010424405984884347805_" class="st5" d="M-63.38-40.65
			c-0.06,1.13,0.8,2.11,1.94,2.17c1.13,0.06,2.11-0.8,2.17-1.94c0.06-1.13-0.8-2.11-1.94-2.17c-0.03,0-0.06,0-0.09,0
			c-1.11-0.04-2.04,0.82-2.08,1.93C-63.38-40.66-63.38-40.65-63.38-40.65z"/>
		<path id="Path_99413_00000082346572539184316720000012382197835105053609_" class="st5" d="M-81.87-40.86
			c-0.06,1.13,0.8,2.1,1.94,2.17c1.13,0.06,2.1-0.8,2.17-1.94c0.06-1.13-0.8-2.1-1.94-2.17c-0.03,0-0.06,0-0.09,0
			c-1.11-0.04-2.04,0.82-2.08,1.93C-81.87-40.87-81.87-40.87-81.87-40.86z"/>
		<path id="Path_99414_00000174581441146100114960000001368720123996907655_" class="st5" d="M-100.36-41.07
			c-0.06,1.13,0.81,2.1,1.94,2.17c1.13,0.06,2.1-0.81,2.17-1.94s-0.81-2.1-1.94-2.17c-0.03,0-0.06,0-0.09,0
			c-1.11-0.04-2.04,0.82-2.08,1.93C-100.36-41.09-100.36-41.08-100.36-41.07z"/>
		<path id="Path_99415_00000111189797809674340800000005029334663502619317_" class="st5" d="M-118.85-41.29
			c-0.06,1.13,0.8,2.1,1.94,2.17c1.13,0.06,2.1-0.8,2.17-1.94c0.06-1.13-0.8-2.1-1.94-2.17c-0.03,0-0.06,0-0.09,0
			c-1.11-0.04-2.04,0.82-2.08,1.93C-118.84-41.3-118.84-41.29-118.85-41.29z"/>
		<path id="Path_99416_00000114787604492787830340000005564223750636887187_" class="st5" d="M-137.34-41.5
			c-0.06,1.13,0.8,2.11,1.94,2.17c1.13,0.06,2.11-0.8,2.17-1.94s-0.8-2.11-1.94-2.17c-0.03,0-0.06,0-0.09,0
			c-1.11-0.04-2.04,0.82-2.08,1.93C-137.34-41.51-137.34-41.51-137.34-41.5z"/>
		<path id="Path_99417_00000152955814722480097270000012788966705212980924_" class="st5" d="M-155.82-41.72
			c-0.06,1.13,0.8,2.11,1.94,2.17c1.13,0.06,2.11-0.8,2.17-1.94c0.06-1.13-0.8-2.11-1.94-2.17c-0.03,0-0.06,0-0.09,0
			c-1.11-0.04-2.04,0.82-2.08,1.93C-155.82-41.73-155.82-41.72-155.82-41.72z"/>
	</g>
	<g id="Group_53331_00000047739341864511019140000014460578344447225513_" transform="translate(0 129.493)">
		<path id="Path_99418_00000175295560305366840500000012270766287303311757_" class="st5" d="M29.02-35.62
			c-0.06,1.13,0.8,2.11,1.94,2.17c1.13,0.06,2.11-0.8,2.17-1.94c0.06-1.13-0.8-2.11-1.94-2.17c-0.03,0-0.06,0-0.09,0
			c-1.11-0.04-2.04,0.82-2.08,1.93C29.02-35.63,29.02-35.63,29.02-35.62z"/>
		<path id="Path_99419_00000081649912330384375640000000951044528128637086_" class="st5" d="M10.53-35.84
			c-0.06,1.13,0.8,2.1,1.94,2.17c1.13,0.06,2.1-0.8,2.17-1.94c0.06-1.13-0.8-2.1-1.94-2.17c-0.03,0-0.06,0-0.09,0
			c-1.11-0.04-2.04,0.82-2.08,1.93C10.53-35.85,10.53-35.84,10.53-35.84z"/>
		<path id="Path_99420_00000179645382743860262720000004494924428922755207_" class="st5" d="M-7.97-36.05
			c-0.06,1.13,0.8,2.11,1.94,2.17c1.13,0.06,2.11-0.8,2.17-1.94c0.06-1.13-0.8-2.11-1.94-2.17c-0.03,0-0.06,0-0.09,0
			c-1.11-0.04-2.04,0.82-2.08,1.93C-7.97-36.06-7.97-36.06-7.97-36.05z"/>
		<path id="Path_99421_00000076573176976229820110000009159488511954390697_" class="st5" d="M-26.45-36.26
			c-0.06,1.13,0.81,2.1,1.94,2.16c1.13,0.06,2.1-0.81,2.17-1.94s-0.81-2.1-1.94-2.16c-0.03,0-0.06,0-0.09,0
			c-1.11-0.04-2.04,0.82-2.08,1.93C-26.45-36.28-26.45-36.27-26.45-36.26z"/>
		<path id="Path_99422_00000050658542323431824520000015328115007947274371_" class="st5" d="M-44.94-36.48
			c-0.06,1.13,0.8,2.11,1.94,2.17c1.13,0.06,2.11-0.8,2.17-1.94c0.06-1.13-0.8-2.11-1.94-2.17c-0.03,0-0.06,0-0.09,0
			C-43.97-38.46-44.9-37.59-44.94-36.48z"/>
		<path id="Path_99423_00000072980980699598876470000013426891136614278333_" class="st5" d="M-63.43-36.69
			c-0.06,1.13,0.8,2.11,1.94,2.17c1.13,0.06,2.11-0.8,2.17-1.94c0.06-1.13-0.8-2.11-1.94-2.17c-0.03,0-0.06,0-0.09,0
			c-1.11-0.04-2.04,0.82-2.08,1.93C-63.43-36.7-63.43-36.7-63.43-36.69z"/>
		<path id="Path_99424_00000085229454345676248460000011469531980626177979_" class="st5" d="M-81.92-36.9
			c-0.06,1.13,0.81,2.1,1.94,2.16c1.13,0.06,2.1-0.81,2.17-1.94s-0.81-2.1-1.94-2.16c-0.03,0-0.06,0-0.09,0
			c-1.11-0.04-2.04,0.82-2.08,1.93C-81.92-36.92-81.92-36.91-81.92-36.9z"/>
		<path id="Path_99425_00000170958219293041643080000004004886660946504121_" class="st5" d="M-100.41-37.12
			c-0.06,1.13,0.8,2.11,1.94,2.17c1.13,0.06,2.11-0.8,2.17-1.94s-0.8-2.11-1.94-2.17c-0.03,0-0.06,0-0.09,0
			c-1.11-0.04-2.04,0.82-2.08,1.93C-100.41-37.13-100.41-37.13-100.41-37.12z"/>
		<path id="Path_99426_00000175322535024243024850000016859830951118250149_" class="st5" d="M-118.9-37.33
			c-0.06,1.13,0.81,2.1,1.94,2.17c1.13,0.06,2.1-0.81,2.17-1.94c0.06-1.13-0.81-2.1-1.94-2.17c-0.03,0-0.06,0-0.09,0
			c-1.11-0.04-2.04,0.82-2.08,1.93C-118.89-37.34-118.9-37.34-118.9-37.33z"/>
		<path id="Path_99427_00000134951337577279832470000015162527722516567172_" class="st5" d="M-137.38-37.55
			c-0.06,1.13,0.8,2.1,1.94,2.17c1.13,0.06,2.1-0.8,2.17-1.94c0.06-1.13-0.8-2.1-1.94-2.17c-0.03,0-0.06,0-0.09,0
			c-1.11-0.04-2.04,0.82-2.08,1.93C-137.38-37.56-137.38-37.55-137.38-37.55z"/>
		<path id="Path_99428_00000115480429321208970490000005687333056691233438_" class="st5" d="M-155.87-37.76
			c-0.06,1.13,0.8,2.11,1.94,2.17c1.13,0.06,2.11-0.8,2.17-1.94c0.06-1.13-0.8-2.11-1.94-2.17c-0.03,0-0.06,0-0.09,0
			c-1.11-0.04-2.04,0.82-2.08,1.93C-155.87-37.77-155.87-37.77-155.87-37.76z"/>
	</g>
</g>
<line id="Line_137_00000092435734779270232870000011647071424695630732_" class="st6" x1="883.43" y1="38.37" x2="1134.43" y2="38.37"/>
<line id="Line_137_00000145751305299197989330000004102221193066761119_" class="st6" x1="662.1" y1="529.15" x2="913.1" y2="529.15"/>
<g class="st7">
	<path class="st5" d="M282.59,4.18c36.37,74.35,113.69,125.67,203.2,125.67S652.61,78.54,688.98,4.18H282.59z"/>
	<path class="st5" d="M606.3,584c-46.71-80.63-134.9-135-236.01-135C269.19,449,181,503.37,134.29,584H606.3z"/>
</g>
</svg>
